<svg width="699" height="651" viewBox="0 0 699 651" fill="none" xmlns="http://www.w3.org/2000/svg">
<g clip-path="url(#clip0_4362_66)">
<path d="M254.72 0C264.84 2.83 273.45 6.86 278.87 16.31C279.76 17.86 283.67 26.54 283.67 27.5V65H464.88C505.07 65 512.49 125.45 471.63 133.76L414.6 134.14C389.18 213.8 352.43 289.89 304.03 357.95C303.42 360.29 332.93 389.19 337.06 393.02C356.17 410.75 391.7 430.81 367.06 462.02C343.31 492.11 313.26 464.58 293.64 446.51C281.72 435.54 271.05 423.09 259.21 412.02L225.29 448.03C197.78 473.63 169.92 499.01 139.22 520.82C116.29 537.11 75.9399 569.78 54.6499 532.9C33.8299 496.83 79.6199 479.28 102.28 462.83C136.91 437.68 172.78 404.98 201.83 373.54C203.64 371.58 213.5 360.68 213.61 359.35C195.6 334.97 177.53 310.67 161.45 284.93C151.67 269.27 124.79 226.31 124.85 209.52C124.94 185.55 149.67 169.54 171.82 177.54C188.86 183.7 193.61 203.35 201.63 217.69C218.26 247.46 237.02 276.31 258.21 303C293.99 251.61 321.14 194.23 341.57 135.02H34.5799C31.7199 135.02 24.1099 132.71 21.1199 131.5C9.80992 126.89 2.73992 116.78 0.139916 105C0.439916 101.82 -0.280084 98.07 0.139916 95C1.76992 83.12 16.0899 66 28.5899 66H214.29L215.79 64.5V27.5C215.79 26.54 219.7 17.86 220.59 16.31C226.01 6.86 234.62 2.83 244.74 0L254.72 0Z" fill="black"/>
<path d="M605.04 560.12L444.02 559.94L415.31 629.36C398.45 665.27 346.35 650.89 349.67 611.61C395.33 493.48 446.03 377.14 493.45 259.62C507.33 233.26 544.04 234.87 555.94 261.79L697.71 606.79C707.02 646.7 654.86 667.11 634.59 632.02L605.04 560.12ZM472.37 491H576.2L523.8 365.99L472.37 491Z" fill="black"/>
</g>
<defs>
<clipPath id="clip0_4362_66">
<rect width="698.81" height="650.02" fill="white"/>
</clipPath>
</defs>
</svg>
